# xmcd
#
# Track frame offsets:
#	150
#	29492
#	57275
#	80237
#	100615
#	128137
#	148200
#	167320
#	193027
#	217205
#
# Disc length: 3156 seconds
#
# Revision: 2
# Processed by: cddbd v1.5PL3 Copyright (c) Steve Scherf et al.
# Submitted via: dBpowerAMP V4.0
#
DISCID=920c520a
DTITLE=Hardware - ThirdEyeOpen;RykoRCD10304
DYEAR=1992
DGENRE=Blues
TTITLE0=GotAFeelin'(StevieSalas,BuddyMiles;1992,Hardware)
TTITLE1=WaitingOnYou(BuddyMiles;1992,Hardware)
TTITLE2=What'sGoin'Down(StevieSalas;1992,Hardware)
TTITLE3=LoveObsession{WhenTheEagleFlies}(BuddyMiles;1992,Hardware)
TTITLE4=HardLook(StevieSalas,BootsyCollins,BuddyMiles;1992,Hardware)
TTITLE5=ShakeIt(StevieSalas,BootsyCollins,DFriendly;1992,Hardware)
TTITLE6=WallsCameDown,The(StevieSalas;1992,Hardware)
TTITLE7=FiveHundredYears(StevieSalas;1992,Hardware)
TTITLE8=TellMe(StevieSalas;1992,Hardware)
TTITLE9=Leakin'(StevieSalas;1992,Hardware)
EXTD=more info
EXTT0=
EXTT1=
EXTT2=
EXTT3=
EXTT4=
EXTT5=
EXTT6=
EXTT7=
EXTT8=
EXTT9=
PLAYORDER=
